# xmcd
#
# Track frame offsets: 
#        150
#        12798
#        23579
#        37542
#        47731
#        62709
#        71496
#        87162
#        99730
#        111960
#        120141
#        134449
#
# Disc length: 1913 seconds
#
# Revision: 0
# Processed by: cddbd v1.5.2PL0 Copyright (c) Steve Scherf et al.
# Submitted via: ExactAudioCopyFreeDBPlugin 1.0
#
DISCID=8c07770c
DTITLE=Dolly Parton - 1969 - My Blue Ridge Mountain Boy
DYEAR=1969
DGENRE=
TTITLE0=In the Ghetto
TTITLE1=Games People Play
TTITLE2='Til Death Do Us Part
TTITLE3=Big Wind
TTITLE4=Evening Shade
TTITLE5=I'm Fed Up with You
TTITLE6=My Blue Ridge Mountain Boy
TTITLE7=Daddy
TTITLE8=We Had All the Good Things Going
TTITLE9=The Monkey's Tale
TTITLE10=Gypsy, Joe and Me
TTITLE11=Home for Pete's Sake
EXTD=
EXTT0=
EXTT1=
EXTT2=
EXTT3=
EXTT4=
EXTT5=
EXTT6=
EXTT7=
EXTT8=
EXTT9=
EXTT10=
EXTT11=
PLAYORDER=
